<svg viewBox="0 0 560 200" xmlns="http://www.w3.org/2000/svg" font-family="monospace" font-size="12">
  <defs>
    <marker id="bad"  markerWidth="8" markerHeight="8" refX="6" refY="3" orient="auto">
      <path d="M0,0 L0,6 L8,3 z" fill="#ef4444"/>
    </marker>
    <marker id="good" markerWidth="8" markerHeight="8" refX="6" refY="3" orient="auto">
      <path d="M0,0 L0,6 L8,3 z" fill="#22c55e"/>
    </marker>
  </defs>

  <rect x="10" y="20" width="140" height="50" rx="6" fill="#fee2e2" stroke="#ef4444" stroke-width="1.5"/>
  <text x="80" y="40" text-anchor="middle" fill="#991b1b" font-weight="bold">ユーザー入力</text>
  <text x="80" y="58" text-anchor="middle" fill="#dc2626" font-size="10">'' OR 1=1;--</text>

  <line x1="150" y1="45" x2="220" y2="45" stroke="#ef4444" stroke-width="1.5" stroke-dasharray="4,3" marker-end="url(#bad)"/>
  <text x="180" y="38" text-anchor="middle" fill="#ef4444" font-size="8">直接埋め込み</text>

  <rect x="220" y="10" width="190" height="70" rx="6" fill="#fee2e2" stroke="#ef4444" stroke-width="1.5"/>
  <text x="305" y="30" text-anchor="middle" fill="#991b1b" font-weight="bold" font-size="11">実行される SQL ❌</text>
  <text x="305" y="50" text-anchor="middle" fill="#dc2626" font-size="10">SELECT * FROM users</text>
  <text x="305" y="66" text-anchor="middle" fill="#dc2626" font-size="10">WHERE id = '' OR 1=1;--</text>

  <line x1="410" y1="45" x2="460" y2="45" stroke="#ef4444" stroke-width="1.5" marker-end="url(#bad)"/>

  <rect x="460" y="20" width="90" height="50" rx="6" fill="#fee2e2" stroke="#ef4444" stroke-width="1.5"/>
  <text x="505" y="42" text-anchor="middle" fill="#991b1b" font-weight="bold">全件漏洩</text>
  <text x="505" y="58" text-anchor="middle" fill="#dc2626" font-size="10">危険！</text>

  <rect x="10" y="130" width="140" height="50" rx="6" fill="#dcfce7" stroke="#22c55e" stroke-width="1.5"/>
  <text x="80" y="150" text-anchor="middle" fill="#166534" font-weight="bold">ユーザー入力</text>
  <text x="80" y="168" text-anchor="middle" fill="#16a34a" font-size="10">'' OR 1=1;--</text>

  <line x1="150" y1="155" x2="220" y2="155" stroke="#22c55e" stroke-width="1.5" marker-end="url(#good)"/>
  <text x="180" y="148" text-anchor="middle" fill="#22c55e" font-size="10">prepare()</text>

  <rect x="220" y="120" width="190" height="70" rx="6" fill="#dcfce7" stroke="#22c55e" stroke-width="1.5"/>
  <text x="305" y="140" text-anchor="middle" fill="#166534" font-weight="bold" font-size="11">実行される SQL ✅</text>
  <text x="305" y="160" text-anchor="middle" fill="#166534" font-size="10">SELECT * FROM users</text>
  <text x="305" y="176" text-anchor="middle" fill="#166534" font-size="10">WHERE id = "'' OR 1=1;--"</text>

  <line x1="410" y1="155" x2="460" y2="155" stroke="#22c55e" stroke-width="1.5" marker-end="url(#good)"/>

  <rect x="460" y="130" width="90" height="50" rx="6" fill="#dcfce7" stroke="#22c55e" stroke-width="1.5"/>
  <text x="505" y="152" text-anchor="middle" fill="#166534" font-weight="bold">0件</text>
  <text x="505" y="168" text-anchor="middle" fill="#22c55e" font-size="10">安全！</text>
</svg>